<svg viewBox="-8 -8 2911.8671875 2091" style="max-width: 2911.8671875px;" xmlns="http://www.w3.org/2000/svg" width="100%" id="mermaid-svg" xmlns:xlink="http://www.w3.org/1999/xlink"><style>#mermaid-svg{font-family:"trebuchet ms",verdana,arial,sans-serif;font-size:16px;fill:#333;}#mermaid-svg .error-icon{fill:#552222;}#mermaid-svg .error-text{fill:#552222;stroke:#552222;}#mermaid-svg .edge-thickness-normal{stroke-width:2px;}#mermaid-svg .edge-thickness-thick{stroke-width:3.5px;}#mermaid-svg .edge-pattern-solid{stroke-dasharray:0;}#mermaid-svg .edge-pattern-dashed{stroke-dasharray:3;}#mermaid-svg .edge-pattern-dotted{stroke-dasharray:2;}#mermaid-svg .marker{fill:#333333;stroke:#333333;}#mermaid-svg .marker.cross{stroke:#333333;}#mermaid-svg svg{font-family:"trebuchet ms",verdana,arial,sans-serif;font-size:16px;}#mermaid-svg .label{font-family:"trebuchet ms",verdana,arial,sans-serif;color:#333;}#mermaid-svg .cluster-label text{fill:#333;}#mermaid-svg .cluster-label span,#mermaid-svg p{color:#333;}#mermaid-svg .label text,#mermaid-svg span,#mermaid-svg p{fill:#333;color:#333;}#mermaid-svg .node rect,#mermaid-svg .node circle,#mermaid-svg .node ellipse,#mermaid-svg .node polygon,#mermaid-svg .node path{fill:#ECECFF;stroke:#9370DB;stroke-width:1px;}#mermaid-svg .flowchart-label text{text-anchor:middle;}#mermaid-svg .node .katex path{fill:#000;stroke:#000;stroke-width:1px;}#mermaid-svg .node .label{text-align:center;}#mermaid-svg .node.clickable{cursor:pointer;}#mermaid-svg .arrowheadPath{fill:#333333;}#mermaid-svg .edgePath .path{stroke:#333333;stroke-width:2.0px;}#mermaid-svg .flowchart-link{stroke:#333333;fill:none;}#mermaid-svg .edgeLabel{background-color:#e8e8e8;text-align:center;}#mermaid-svg .edgeLabel rect{opacity:0.5;background-color:#e8e8e8;fill:#e8e8e8;}#mermaid-svg .labelBkg{background-color:rgba(232, 232, 232, 0.5);}#mermaid-svg .cluster rect{fill:#ffffde;stroke:#aaaa33;stroke-width:1px;}#mermaid-svg .cluster text{fill:#333;}#mermaid-svg .cluster span,#mermaid-svg p{color:#333;}#mermaid-svg div.mermaidTooltip{position:absolute;text-align:center;max-width:200px;padding:2px;font-family:"trebuchet ms",verdana,arial,sans-serif;font-size:12px;background:hsl(80, 100%, 96.2745098039%);border:1px solid #aaaa33;border-radius:2px;pointer-events:none;z-index:100;}#mermaid-svg .flowchartTitleText{text-anchor:middle;font-size:18px;fill:#333;}#mermaid-svg :root{--mermaid-font-family:"trebuchet ms",verdana,arial,sans-serif;}#mermaid-svg .hunting rect{fill:#0f172a!important;stroke:#38bdf8!important;stroke-width:2px!important;color:#ffffff!important;}#mermaid-svg .hunting polygon{fill:#0f172a!important;stroke:#38bdf8!important;stroke-width:2px!important;color:#ffffff!important;}#mermaid-svg .hunting ellipse{fill:#0f172a!important;stroke:#38bdf8!important;stroke-width:2px!important;color:#ffffff!important;}#mermaid-svg .hunting circle{fill:#0f172a!important;stroke:#38bdf8!important;stroke-width:2px!important;color:#ffffff!important;}#mermaid-svg .hunting path{fill:#0f172a!important;stroke:#38bdf8!important;stroke-width:2px!important;color:#ffffff!important;}#mermaid-svg .hunting tspan{fill:#ffffff!important;}#mermaid-svg .tool rect{fill:#172554!important;stroke:#60a5fa!important;stroke-width:2px!important;color:#ffffff!important;}#mermaid-svg .tool polygon{fill:#172554!important;stroke:#60a5fa!important;stroke-width:2px!important;color:#ffffff!important;}#mermaid-svg .tool ellipse{fill:#172554!important;stroke:#60a5fa!important;stroke-width:2px!important;color:#ffffff!important;}#mermaid-svg .tool circle{fill:#172554!important;stroke:#60a5fa!important;stroke-width:2px!important;color:#ffffff!important;}#mermaid-svg .tool path{fill:#172554!important;stroke:#60a5fa!important;stroke-width:2px!important;color:#ffffff!important;}#mermaid-svg .tool tspan{fill:#ffffff!important;}#mermaid-svg .api rect{fill:#312e81!important;stroke:#a78bfa!important;stroke-width:2px!important;color:#ffffff!important;}#mermaid-svg .api polygon{fill:#312e81!important;stroke:#a78bfa!important;stroke-width:2px!important;color:#ffffff!important;}#mermaid-svg .api ellipse{fill:#312e81!important;stroke:#a78bfa!important;stroke-width:2px!important;color:#ffffff!important;}#mermaid-svg .api circle{fill:#312e81!important;stroke:#a78bfa!important;stroke-width:2px!important;color:#ffffff!important;}#mermaid-svg .api path{fill:#312e81!important;stroke:#a78bfa!important;stroke-width:2px!important;color:#ffffff!important;}#mermaid-svg .api tspan{fill:#ffffff!important;}#mermaid-svg .data rect{fill:#3b1818!important;stroke:#ef4444!important;stroke-width:2px!important;color:#ffffff!important;}#mermaid-svg .data polygon{fill:#3b1818!important;stroke:#ef4444!important;stroke-width:2px!important;color:#ffffff!important;}#mermaid-svg .data ellipse{fill:#3b1818!important;stroke:#ef4444!important;stroke-width:2px!important;color:#ffffff!important;}#mermaid-svg .data circle{fill:#3b1818!important;stroke:#ef4444!important;stroke-width:2px!important;color:#ffffff!important;}#mermaid-svg .data path{fill:#3b1818!important;stroke:#ef4444!important;stroke-width:2px!important;color:#ffffff!important;}#mermaid-svg .data tspan{fill:#ffffff!important;}#mermaid-svg .db rect{fill:#052e25!important;stroke:#34d399!important;stroke-width:2px!important;color:#ffffff!important;}#mermaid-svg .db polygon{fill:#052e25!important;stroke:#34d399!important;stroke-width:2px!important;color:#ffffff!important;}#mermaid-svg .db ellipse{fill:#052e25!important;stroke:#34d399!important;stroke-width:2px!important;color:#ffffff!important;}#mermaid-svg .db circle{fill:#052e25!important;stroke:#34d399!important;stroke-width:2px!important;color:#ffffff!important;}#mermaid-svg .db path{fill:#052e25!important;stroke:#34d399!important;stroke-width:2px!important;color:#ffffff!important;}#mermaid-svg .db tspan{fill:#ffffff!important;}#mermaid-svg .workflow rect{fill:#292524!important;stroke:#facc15!important;stroke-width:2px!important;color:#ffffff!important;}#mermaid-svg .workflow polygon{fill:#292524!important;stroke:#facc15!important;stroke-width:2px!important;color:#ffffff!important;}#mermaid-svg .workflow ellipse{fill:#292524!important;stroke:#facc15!important;stroke-width:2px!important;color:#ffffff!important;}#mermaid-svg .workflow circle{fill:#292524!important;stroke:#facc15!important;stroke-width:2px!important;color:#ffffff!important;}#mermaid-svg .workflow path{fill:#292524!important;stroke:#facc15!important;stroke-width:2px!important;color:#ffffff!important;}#mermaid-svg .workflow tspan{fill:#ffffff!important;}</style><g><marker orient="auto" markerHeight="12" markerWidth="12" markerUnits="userSpaceOnUse" refY="5" refX="6" viewBox="0 0 10 10" class="marker flowchart" id="mermaid-svg_flowchart-pointEnd"><path style="stroke-width: 1; stroke-dasharray: 1, 0;" class="arrowMarkerPath" d="M 0 0 L 10 5 L 0 10 z"></path></marker><marker orient="auto" markerHeight="12" markerWidth="12" markerUnits="userSpaceOnUse" refY="5" refX="4.5" viewBox="0 0 10 10" class="marker flowchart" id="mermaid-svg_flowchart-pointStart"><path style="stroke-width: 1; stroke-dasharray: 1, 0;" class="arrowMarkerPath" d="M 0 5 L 10 10 L 10 0 z"></path></marker><marker orient="auto" markerHeight="11" markerWidth="11" markerUnits="userSpaceOnUse" refY="5" refX="11" viewBox="0 0 10 10" class="marker flowchart" id="mermaid-svg_flowchart-circleEnd"><circle style="stroke-width: 1; stroke-dasharray: 1, 0;" class="arrowMarkerPath" r="5" cy="5" cx="5"></circle></marker><marker orient="auto" markerHeight="11" markerWidth="11" markerUnits="userSpaceOnUse" refY="5" refX="-1" viewBox="0 0 10 10" class="marker flowchart" id="mermaid-svg_flowchart-circleStart"><circle style="stroke-width: 1; stroke-dasharray: 1, 0;" class="arrowMarkerPath" r="5" cy="5" cx="5"></circle></marker><marker orient="auto" markerHeight="11" markerWidth="11" markerUnits="userSpaceOnUse" refY="5.2" refX="12" viewBox="0 0 11 11" class="marker cross flowchart" id="mermaid-svg_flowchart-crossEnd"><path style="stroke-width: 2; stroke-dasharray: 1, 0;" class="arrowMarkerPath" d="M 1,1 l 9,9 M 10,1 l -9,9"></path></marker><marker orient="auto" markerHeight="11" markerWidth="11" markerUnits="userSpaceOnUse" refY="5.2" refX="-1" viewBox="0 0 11 11" class="marker cross flowchart" id="mermaid-svg_flowchart-crossStart"><path style="stroke-width: 2; stroke-dasharray: 1, 0;" class="arrowMarkerPath" d="M 1,1 l 9,9 M 10,1 l -9,9"></path></marker><g class="root"><g class="clusters"><g id="DATA" class="cluster default flowchart-label"><rect height="546" width="2223.3046875" y="1529" x="672.5625" ry="0" rx="0" style="fill:#3a1515;stroke:#ef4444;stroke-width:2px;stroke-dasharray: 8 5;"></rect><g transform="translate(1784.21484375, 1529)" class="cluster-label"><text style="fill:#ffffff;" fill="#ffffff"><tspan class="row" x="0" dy="1em" xml:space="preserve">Connected CySA Data / Services</tspan></text></g></g><g id="THREAT_HUNTING" class="cluster default flowchart-label"><rect height="1509" width="2895.8671875" y="0" x="0" ry="0" rx="0" style="fill:#08111f;stroke:#38bdf8;stroke-width:3px;stroke-dasharray: 10 6;"></rect><g transform="translate(1447.93359375, 0)" class="cluster-label"><text style="fill:#ffffff;" fill="#ffffff"><tspan class="row" x="0" dy="1em" xml:space="preserve">Module 1 — Threat Hunting</tspan><tspan class="row" x="0" dy="1em" xml:space="preserve">Status: Planned / Advanced Capability</tspan></text></g></g><g id="TOOLS" class="cluster default flowchart-label"><rect height="597.5" width="2554.7890625" y="37.5" x="316.078125" ry="0" rx="0" style="fill:#0f1f46;stroke:#60a5fa;stroke-width:2px;stroke-dasharray: 8 5;"></rect><g transform="translate(1593.47265625, 37.5)" class="cluster-label"><text style="fill:#ffffff;" fill="#ffffff"><tspan class="row" x="0" dy="1em" xml:space="preserve">Hunting Tools / Engines</tspan></text></g></g><g id="CATEGORIES" class="cluster default flowchart-label"><rect height="670" width="241.078125" y="20" x="25" ry="0" rx="0" style="fill:#111827;stroke:#38bdf8;stroke-width:2px;stroke-dasharray: 8 5;"></rect><g transform="translate(145.5390625, 20)" class="cluster-label"><text style="fill:#ffffff;" fill="#ffffff"><tspan class="row" x="0" dy="1em" xml:space="preserve">Sigma Rule Categories to Import</tspan></text></g></g></g><g class="edgePaths"><path marker-end="url(#mermaid-svg_flowchart-pointEnd)" style="fill:none;" class="edge-thickness-normal edge-pattern-solid flowchart-link LS-FRONTEND LE-BACKEND" id="L-FRONTEND-BACKEND-0" d="M921.598,1679.75L947.911,1679.75C974.224,1679.75,1026.85,1679.75,1071.935,1679.75C1117.02,1679.75,1154.563,1679.75,1173.335,1679.75L1192.106,1679.75"></path><path marker-end="url(#mermaid-svg_flowchart-pointEnd)" style="fill:none;" class="edge-thickness-normal edge-pattern-solid flowchart-link LS-SIGMA LE-SIGMACLI" id="L-SIGMA-SIGMACLI-0" d="M622.563,355L626.729,355C630.896,355,639.229,355,647.563,355C655.896,355,664.229,355,678.716,355C693.202,355,713.842,355,724.161,355L734.481,355"></path><path marker-end="url(#mermaid-svg_flowchart-pointEnd)" style="fill:none;" class="edge-thickness-normal edge-pattern-solid flowchart-link LS-SIGMACLI LE-BACKEND" id="L-SIGMACLI-BACKEND-0" d="M919.328,355L946.02,355C972.711,355,1026.094,355,1086.501,570.919C1146.909,786.838,1214.342,1218.676,1248.058,1434.595L1281.774,1650.513"></path><path marker-end="url(#mermaid-svg_flowchart-pointEnd)" style="fill:none;" class="edge-thickness-normal edge-pattern-solid flowchart-link LS-BACKEND LE-INDEXER" id="L-BACKEND-INDEXER-0" d="M1359.324,1655.75L1380.231,1648.875C1401.138,1642,1442.952,1628.25,1566.759,1623.964C1690.567,1619.678,1896.369,1624.856,1999.27,1627.445L2102.17,1630.034"></path><path marker-end="url(#mermaid-svg_flowchart-pointEnd)" style="fill:none;" class="edge-thickness-normal edge-pattern-solid flowchart-link LS-INDEXER LE-BACKEND" id="L-INDEXER-BACKEND-0" d="M2107.469,1640.159L2003.685,1646.757C1899.901,1653.356,1692.333,1666.553,1571.184,1673.151C1450.035,1679.75,1415.304,1679.75,1397.939,1679.75L1380.573,1679.75"></path><path marker-end="url(#mermaid-svg_flowchart-pointEnd)" style="fill:none;" class="edge-thickness-normal edge-pattern-solid flowchart-link LS-BACKEND LE-POSTGRES" id="L-BACKEND-POSTGRES-0" d="M1343.202,1703.75L1366.796,1713.708C1390.39,1723.667,1437.578,1743.583,1570.659,1753.542C1703.74,1763.5,1922.714,1763.5,2032.201,1763.5L2141.688,1763.5"></path><path marker-end="url(#mermaid-svg_flowchart-pointEnd)" style="fill:none;" class="edge-thickness-normal edge-pattern-solid flowchart-link LS-BACKEND LE-JUPYTER" id="L-BACKEND-JUPYTER-0" d="M1325.295,1655.75L1351.873,1639.375C1378.452,1623,1431.609,1590.25,1575.427,1380.547C1719.246,1170.844,1953.726,784.188,2070.966,590.86L2188.206,397.532"></path><path marker-end="url(#mermaid-svg_flowchart-pointEnd)" style="fill:none;stroke-width:2px;stroke-dasharray:3;" class="edge-thickness-normal edge-pattern-dotted flowchart-link LS-HAYABUSA LE-BACKEND" id="L-HAYABUSA-BACKEND-0" d="M961.547,568L981.202,568C1000.857,568,1040.167,568,1093.393,748.423C1146.619,928.846,1213.762,1289.693,1247.333,1470.116L1280.905,1650.539"></path><path marker-end="url(#mermaid-svg_flowchart-pointEnd)" style="fill:none;" class="edge-thickness-normal edge-pattern-solid flowchart-link LS-BACKEND LE-SHUFFLE" id="L-BACKEND-SHUFFLE-0" d="M1308.567,1703.75L1337.934,1735.458C1367.3,1767.167,1426.033,1830.583,1563.207,1862.292C1700.38,1894,1915.995,1894,2023.803,1894L2131.61,1894"></path><path marker-end="url(#mermaid-svg_flowchart-pointEnd)" style="fill:none;stroke-width:2px;stroke-dasharray:3;" class="edge-thickness-normal edge-pattern-dotted flowchart-link LS-BACKEND LE-THEHIVE" id="L-BACKEND-THEHIVE-0" d="M1300.848,1703.75L1331.501,1754.458C1362.154,1805.167,1423.46,1906.583,1562.076,1957.292C1700.692,2008,1916.618,2008,2024.581,2008L2132.544,2008"></path><path marker-end="url(#mermaid-svg_flowchart-pointEnd)" style="fill:none;stroke-width:2px;stroke-dasharray:3;" class="edge-thickness-normal edge-pattern-dotted flowchart-link LS-C1 LE-SIGMA" id="L-C1-SIGMA-0" d="M217.348,95L225.469,95C233.591,95,249.835,95,262.123,95C274.411,95,282.745,95,291.078,95C299.411,95,307.745,95,334.811,130.922C361.876,166.844,407.674,238.687,430.573,274.609L453.473,310.531"></path><path marker-end="url(#mermaid-svg_flowchart-pointEnd)" style="fill:none;stroke-width:2px;stroke-dasharray:3;" class="edge-thickness-normal edge-pattern-dotted flowchart-link LS-C2 LE-SIGMA" id="L-C2-SIGMA-0" d="M222.449,225L229.721,225C236.992,225,251.535,225,262.973,225C274.411,225,282.745,225,291.078,225C299.411,225,307.745,225,330.341,239.455C352.936,253.91,389.794,282.819,408.223,297.274L426.652,311.729"></path><path marker-end="url(#mermaid-svg_flowchart-pointEnd)" style="fill:none;stroke-width:2px;stroke-dasharray:3;" class="edge-thickness-normal edge-pattern-dotted flowchart-link LS-C3 LE-SIGMA" id="L-C3-SIGMA-0" d="M241.078,355L245.245,355C249.411,355,257.745,355,266.078,355C274.411,355,282.745,355,291.078,355C299.411,355,307.745,355,315.195,355C322.645,355,329.211,355,332.495,355L335.778,355"></path><path marker-end="url(#mermaid-svg_flowchart-pointEnd)" style="fill:none;stroke-width:2px;stroke-dasharray:3;" class="edge-thickness-normal edge-pattern-dotted flowchart-link LS-C4 LE-SIGMA" id="L-C4-SIGMA-0" d="M233.523,485L238.949,485C244.375,485,255.227,485,264.819,485C274.411,485,282.745,485,291.078,485C299.411,485,307.745,485,330.341,470.545C352.936,456.09,389.794,427.181,408.223,412.726L426.652,398.271"></path><path marker-end="url(#mermaid-svg_flowchart-pointEnd)" style="fill:none;stroke-width:2px;stroke-dasharray:3;" class="edge-thickness-normal edge-pattern-dotted flowchart-link LS-C5 LE-SIGMA" id="L-C5-SIGMA-0" d="M238.289,615L242.921,615C247.552,615,256.815,615,265.613,615C274.411,615,282.745,615,291.078,615C299.411,615,307.745,615,334.811,579.078C361.876,543.156,407.674,471.313,430.573,435.391L453.473,399.469"></path><path marker-end="url(#mermaid-svg_flowchart-pointEnd)" style="fill:none;" class="edge-thickness-normal edge-pattern-solid flowchart-link LS-BACKEND LE-API" id="L-BACKEND-API-0" d="M1337.137,1655.75L1361.742,1644.125C1386.346,1632.5,1435.556,1609.25,1544.55,1579.147C1653.543,1549.045,1822.321,1512.089,1906.71,1493.611L1991.099,1475.134"></path></g><g class="edgeLabels"><g transform="translate(1079.4765625, 1679.75)" class="edgeLabel"><g transform="translate(-80.9296875, -8.5)" class="label"><rect height="17.944339752197266" width="161.83213806152344" ry="0" rx="0"></rect><text fill="#000000"><tspan class="row" x="0" dy="1em" xml:space="preserve">Run hunt / view results</tspan></text></g></g><g class="edgeLabel"><g transform="translate(0, 0)" class="label"><rect height="0" width="0" ry="0" rx="0"></rect><text fill="#000000"><tspan class="row" x="0" dy="1em" xml:space="preserve"></tspan></text></g></g><g transform="translate(1079.4765625, 355)" class="edgeLabel"><g transform="translate(-84.640625, -8.5)" class="label"><rect height="17.944339752197266" width="169.2530517578125" ry="0" rx="0"></rect><text fill="#000000"><tspan class="row" x="0" dy="1em" xml:space="preserve">OpenSearch DSL query</tspan></text></g></g><g transform="translate(1484.765625, 1614.5)" class="edgeLabel"><g transform="translate(-50.2578125, -8.5)" class="label"><rect height="17.944339752197266" width="100.55850982666016" ry="0" rx="0"></rect><text fill="#000000"><tspan class="row" x="0" dy="1em" xml:space="preserve">execute query</tspan></text></g></g><g transform="translate(1484.765625, 1679.75)" class="edgeLabel"><g transform="translate(-60.4765625, -8.5)" class="label"><rect height="17.944339752197266" width="120.9726333618164" ry="0" rx="0"></rect><text fill="#000000"><tspan class="row" x="0" dy="1em" xml:space="preserve">matches / events</tspan></text></g></g><g transform="translate(1484.765625, 1763.5)" class="edgeLabel"><g transform="translate(-84.4921875, -8.5)" class="label"><rect height="17.944339752197266" width="168.94895935058594" ry="0" rx="0"></rect><text fill="#000000"><tspan class="row" x="0" dy="1em" xml:space="preserve">save sessions / findings</tspan></text></g></g><g transform="translate(1484.765625, 1557.5)" class="edgeLabel"><g transform="translate(-81.0078125, -8.5)" class="label"><rect height="17.944339752197266" width="162.62847900390625" ry="0" rx="0"></rect><text fill="#000000"><tspan class="row" x="0" dy="1em" xml:space="preserve">optional notebook data</tspan></text></g></g><g transform="translate(1079.4765625, 568)" class="edgeLabel"><g transform="translate(-92.9296875, -16.5)" class="label"><rect height="33.944339752197266" width="185.81246948242188" ry="0" rx="0"></rect><text fill="#000000"><tspan class="row" x="0" dy="1em" xml:space="preserve">Windows event log results</tspan><tspan class="row" x="0" dy="1em" xml:space="preserve">future import</tspan></text></g></g><g transform="translate(1484.765625, 1894)" class="edgeLabel"><g transform="translate(-60.921875, -16.5)" class="label"><rect height="33.944339752197266" width="121.7105484008789" ry="0" rx="0"></rect><text fill="#000000"><tspan class="row" x="0" dy="1em" xml:space="preserve">confirmed finding</tspan><tspan class="row" x="0" dy="1em" xml:space="preserve">SOAR action</tspan></text></g></g><g transform="translate(1484.765625, 2008)" class="edgeLabel"><g transform="translate(-46.07421875, -16.5)" class="label"><rect height="33.944339752197266" width="91.94266510009766" ry="0" rx="0"></rect><text fill="#000000"><tspan class="row" x="0" dy="1em" xml:space="preserve">confirmed hit</tspan><tspan class="row" x="0" dy="1em" xml:space="preserve">create case</tspan></text></g></g><g class="edgeLabel"><g transform="translate(0, 0)" class="label"><rect height="0" width="0" ry="0" rx="0"></rect><text fill="#000000"><tspan class="row" x="0" dy="1em" xml:space="preserve"></tspan></text></g></g><g class="edgeLabel"><g transform="translate(0, 0)" class="label"><rect height="0" width="0" ry="0" rx="0"></rect><text fill="#000000"><tspan class="row" x="0" dy="1em" xml:space="preserve"></tspan></text></g></g><g class="edgeLabel"><g transform="translate(0, 0)" class="label"><rect height="0" width="0" ry="0" rx="0"></rect><text fill="#000000"><tspan class="row" x="0" dy="1em" xml:space="preserve"></tspan></text></g></g><g class="edgeLabel"><g transform="translate(0, 0)" class="label"><rect height="0" width="0" ry="0" rx="0"></rect><text fill="#000000"><tspan class="row" x="0" dy="1em" xml:space="preserve"></tspan></text></g></g><g class="edgeLabel"><g transform="translate(0, 0)" class="label"><rect height="0" width="0" ry="0" rx="0"></rect><text fill="#000000"><tspan class="row" x="0" dy="1em" xml:space="preserve"></tspan></text></g></g><g class="edgeLabel"><g transform="translate(0, 0)" class="label"><rect height="0" width="0" ry="0" rx="0"></rect><text fill="#000000"><tspan class="row" x="0" dy="1em" xml:space="preserve"></tspan></text></g></g></g><g class="nodes"><g transform="translate(1286.33984375, 1679.75)" id="flowchart-BACKEND-29" class="node default data flowchart-label"><rect height="48" width="177.8671875" y="-24" x="-88.93359375" ry="0" rx="0" class="basic label-container"></rect><g transform="translate(0, -16.5)" class="label"><rect></rect><text fill="#ffffff"><tspan class="row" x="0" dy="1em" xml:space="preserve">NestJS Backend :4000</tspan><tspan class="row" x="0" dy="1em" xml:space="preserve">Threat Hunting Module</tspan></text></g></g><g transform="translate(2220.0625, 1633)" id="flowchart-INDEXER-30" class="node default data flowchart-label"><rect height="64" width="225.1875" y="-32" x="-112.59375" ry="0" rx="0" class="basic label-container"></rect><g transform="translate(0, -24.5)" class="label"><rect></rect><text fill="#ffffff"><tspan class="row" x="0" dy="1em" xml:space="preserve">Wazuh Indexer / OpenSearch</tspan><tspan class="row" x="0" dy="1em" xml:space="preserve">via Nginx :9201</tspan><tspan class="row" x="0" dy="1em" xml:space="preserve">Index: wazuh-alerts-*</tspan></text></g></g><g transform="translate(2220.0625, 1763.5)" id="flowchart-POSTGRES-31" class="node default db flowchart-label"><rect height="97" width="146.1484375" y="-48.5" x="-73.07421875" ry="0" rx="0" class="basic label-container"></rect><g transform="translate(0, -41)" class="label"><rect></rect><text fill="#ffffff"><tspan class="row" x="0" dy="1em" xml:space="preserve">PostgreSQL :5432</tspan><tspan class="row" x="0" dy="1em" xml:space="preserve"></tspan><tspan class="row" x="0" dy="1em" xml:space="preserve">Planned tables:</tspan><tspan class="row" x="0" dy="1em" xml:space="preserve">hunting_results</tspan><tspan class="row" x="0" dy="1em" xml:space="preserve">hunt_sessions</tspan><tspan class="row" x="0" dy="1em" xml:space="preserve">hunt_findings</tspan></text></g></g><g transform="translate(2220.0625, 1894)" id="flowchart-SHUFFLE-32" class="node default data flowchart-label"><rect height="64" width="166.3046875" y="-32" x="-83.15234375" ry="0" rx="0" class="basic label-container"></rect><g transform="translate(0, -24.5)" class="label"><rect></rect><text fill="#ffffff"><tspan class="row" x="0" dy="1em" xml:space="preserve">Shuffle SOAR</tspan><tspan class="row" x="0" dy="1em" xml:space="preserve">via Nginx :3010</tspan><tspan class="row" x="0" dy="1em" xml:space="preserve">Automation response</tspan></text></g></g><g transform="translate(2220.0625, 2008)" id="flowchart-THEHIVE-33" class="node default data flowchart-label"><rect height="64" width="164.4375" y="-32" x="-82.21875" ry="0" rx="0" class="basic label-container"></rect><g transform="translate(0, -24.5)" class="label"><rect></rect><text fill="#ffffff"><tspan class="row" x="0" dy="1em" xml:space="preserve">TheHive :9000</tspan><tspan class="row" x="0" dy="1em" xml:space="preserve">Case creation</tspan><tspan class="row" x="0" dy="1em" xml:space="preserve">Incident investigation</tspan></text></g></g><g transform="translate(829.5546875, 1679.75)" id="flowchart-FRONTEND-34" class="node default data flowchart-label"><rect height="48" width="184.0859375" y="-24" x="-92.04296875" ry="0" rx="0" class="basic label-container"></rect><g transform="translate(0, -16.5)" class="label"><rect></rect><text fill="#ffffff"><tspan class="row" x="0" dy="1em" xml:space="preserve">Next.js Frontend :3005</tspan><tspan class="row" x="0" dy="1em" xml:space="preserve">Threat Hunting Console</tspan></text></g></g><g transform="translate(2033.96484375, 662)" class="root"><g class="clusters"><g id="WORKFLOW" class="cluster default flowchart-label"><rect height="656" width="357.1953125" y="8" x="8" ry="0" rx="0" style="fill:#292524;stroke:#facc15;stroke-width:2px;stroke-dasharray: 8 5;"></rect><g transform="translate(186.59765625, 8)" class="cluster-label"><text style="fill:#ffffff;" fill="#ffffff"><tspan class="row" x="0" dy="1em" xml:space="preserve">Threat Hunting Workflow</tspan></text></g></g></g><g class="edgePaths"><path marker-end="url(#mermaid-svg_flowchart-pointEnd)" style="fill:none;" class="edge-thickness-normal edge-pattern-solid flowchart-link LS-H1 LE-H2" id="L-H1-H2-0" d="M186.598,65L186.598,69.167C186.598,73.333,186.598,81.667,186.598,89.117C186.598,96.567,186.598,103.133,186.598,106.417L186.598,109.7"></path><path marker-end="url(#mermaid-svg_flowchart-pointEnd)" style="fill:none;" class="edge-thickness-normal edge-pattern-solid flowchart-link LS-H2 LE-H3" id="L-H2-H3-0" d="M186.598,147L186.598,151.167C186.598,155.333,186.598,163.667,186.598,171.117C186.598,178.567,186.598,185.133,186.598,188.417L186.598,191.7"></path><path marker-end="url(#mermaid-svg_flowchart-pointEnd)" style="fill:none;" class="edge-thickness-normal edge-pattern-solid flowchart-link LS-H3 LE-H4" id="L-H3-H4-0" d="M186.598,229L186.598,233.167C186.598,237.333,186.598,245.667,186.598,253.117C186.598,260.567,186.598,267.133,186.598,270.417L186.598,273.7"></path><path marker-end="url(#mermaid-svg_flowchart-pointEnd)" style="fill:none;" class="edge-thickness-normal edge-pattern-solid flowchart-link LS-H4 LE-H5" id="L-H4-H5-0" d="M186.598,311L186.598,315.167C186.598,319.333,186.598,327.667,186.598,335.117C186.598,342.567,186.598,349.133,186.598,352.417L186.598,355.7"></path><path marker-end="url(#mermaid-svg_flowchart-pointEnd)" style="fill:none;" class="edge-thickness-normal edge-pattern-solid flowchart-link LS-H5 LE-H6" id="L-H5-H6-0" d="M186.598,393L186.598,397.167C186.598,401.333,186.598,409.667,186.598,417.117C186.598,424.567,186.598,431.133,186.598,434.417L186.598,437.7"></path><path marker-end="url(#mermaid-svg_flowchart-pointEnd)" style="fill:none;" class="edge-thickness-normal edge-pattern-solid flowchart-link LS-H6 LE-H7" id="L-H6-H7-0" d="M186.598,475L186.598,479.167C186.598,483.333,186.598,491.667,186.598,499.117C186.598,506.567,186.598,513.133,186.598,516.417L186.598,519.7"></path><path marker-end="url(#mermaid-svg_flowchart-pointEnd)" style="fill:none;" class="edge-thickness-normal edge-pattern-solid flowchart-link LS-H7 LE-H8" id="L-H7-H8-0" d="M186.598,557L186.598,561.167C186.598,565.333,186.598,573.667,186.598,581.117C186.598,588.567,186.598,595.133,186.598,598.417L186.598,601.7"></path></g><g class="edgeLabels"><g class="edgeLabel"><g transform="translate(0, 0)" class="label"><rect height="0" width="0" ry="0" rx="0"></rect><text fill="#000000"><tspan class="row" x="0" dy="1em" xml:space="preserve"></tspan></text></g></g><g class="edgeLabel"><g transform="translate(0, 0)" class="label"><rect height="0" width="0" ry="0" rx="0"></rect><text fill="#000000"><tspan class="row" x="0" dy="1em" xml:space="preserve"></tspan></text></g></g><g class="edgeLabel"><g transform="translate(0, 0)" class="label"><rect height="0" width="0" ry="0" rx="0"></rect><text fill="#000000"><tspan class="row" x="0" dy="1em" xml:space="preserve"></tspan></text></g></g><g class="edgeLabel"><g transform="translate(0, 0)" class="label"><rect height="0" width="0" ry="0" rx="0"></rect><text fill="#000000"><tspan class="row" x="0" dy="1em" xml:space="preserve"></tspan></text></g></g><g class="edgeLabel"><g transform="translate(0, 0)" class="label"><rect height="0" width="0" ry="0" rx="0"></rect><text fill="#000000"><tspan class="row" x="0" dy="1em" xml:space="preserve"></tspan></text></g></g><g class="edgeLabel"><g transform="translate(0, 0)" class="label"><rect height="0" width="0" ry="0" rx="0"></rect><text fill="#000000"><tspan class="row" x="0" dy="1em" xml:space="preserve"></tspan></text></g></g><g class="edgeLabel"><g transform="translate(0, 0)" class="label"><rect height="0" width="0" ry="0" rx="0"></rect><text fill="#000000"><tspan class="row" x="0" dy="1em" xml:space="preserve"></tspan></text></g></g></g><g class="nodes"><g transform="translate(186.59765625, 49)" id="flowchart-H1-4" class="node default workflow flowchart-label"><rect height="32" width="287.1953125" y="-16" x="-143.59765625" ry="0" rx="0" class="basic label-container"></rect><g transform="translate(0, -8.5)" class="label"><rect></rect><text fill="#ffffff"><tspan class="row" x="0" dy="1em" xml:space="preserve">1. Analyst writes or imports Sigma rule</tspan></text></g></g><g transform="translate(186.59765625, 131)" id="flowchart-H2-5" class="node default workflow flowchart-label"><rect height="32" width="192.046875" y="-16" x="-96.0234375" ry="0" rx="0" class="basic label-container"></rect><g transform="translate(0, -8.5)" class="label"><rect></rect><text fill="#ffffff"><tspan class="row" x="0" dy="1em" xml:space="preserve">2. sigma-cli converts rule</tspan></text></g></g><g transform="translate(186.59765625, 213)" id="flowchart-H3-6" class="node default workflow flowchart-label"><rect height="32" width="259.609375" y="-16" x="-129.8046875" ry="0" rx="0" class="basic label-container"></rect><g transform="translate(0, -8.5)" class="label"><rect></rect><text fill="#ffffff"><tspan class="row" x="0" dy="1em" xml:space="preserve">3. OpenSearch query is generated</tspan></text></g></g><g transform="translate(186.59765625, 295)" id="flowchart-H4-7" class="node default workflow flowchart-label"><rect height="32" width="274.671875" y="-16" x="-137.3359375" ry="0" rx="0" class="basic label-container"></rect><g transform="translate(0, -8.5)" class="label"><rect></rect><text fill="#ffffff"><tspan class="row" x="0" dy="1em" xml:space="preserve">4. Query runs against wazuh-alerts-*</tspan></text></g></g><g transform="translate(186.59765625, 377)" id="flowchart-H5-8" class="node default workflow flowchart-label"><rect height="32" width="137.75" y="-16" x="-68.875" ry="0" rx="0" class="basic label-container"></rect><g transform="translate(0, -8.5)" class="label"><rect></rect><text fill="#ffffff"><tspan class="row" x="0" dy="1em" xml:space="preserve">5. Matches found</tspan></text></g></g><g transform="translate(186.59765625, 459)" id="flowchart-H6-9" class="node default workflow flowchart-label"><rect height="32" width="211.6484375" y="-16" x="-105.82421875" ry="0" rx="0" class="basic label-container"></rect><g transform="translate(0, -8.5)" class="label"><rect></rect><text fill="#ffffff"><tspan class="row" x="0" dy="1em" xml:space="preserve">6. Analyst reviews evidence</tspan></text></g></g><g transform="translate(186.59765625, 541)" id="flowchart-H7-10" class="node default workflow flowchart-label"><rect height="32" width="158.1875" y="-16" x="-79.09375" ry="0" rx="0" class="basic label-container"></rect><g transform="translate(0, -8.5)" class="label"><rect></rect><text fill="#ffffff"><tspan class="row" x="0" dy="1em" xml:space="preserve">7. Confirmed finding</tspan></text></g></g><g transform="translate(186.59765625, 623)" id="flowchart-H8-11" class="node default workflow flowchart-label"><rect height="32" width="238.640625" y="-16" x="-119.3203125" ry="0" rx="0" class="basic label-container"></rect><g transform="translate(0, -8.5)" class="label"><rect></rect><text fill="#ffffff"><tspan class="row" x="0" dy="1em" xml:space="preserve">8. Escalate to TheHive / Shuffle</tspan></text></g></g></g></g><g transform="translate(1586.7578125, 1368)" class="root"><g class="clusters"><g id="API" class="cluster default flowchart-label"><rect height="98" width="1251.609375" y="8" x="8" ry="0" rx="0" style="fill:#21164b;stroke:#a78bfa;stroke-width:2px;stroke-dasharray: 8 5;"></rect><g transform="translate(633.8046875, 8)" class="cluster-label"><text style="fill:#ffffff;" fill="#ffffff"><tspan class="row" x="0" dy="1em" xml:space="preserve">NestJS Hunting API</tspan></text></g></g></g><g class="edgePaths"></g><g class="edgeLabels"></g><g class="nodes"><g transform="translate(169.234375, 57)" id="flowchart-A1-25" class="node default api flowchart-label"><rect height="48" width="252.46875" y="-24" x="-126.234375" ry="0" rx="0" class="basic label-container"></rect><g transform="translate(0, -16.5)" class="label"><rect></rect><text fill="#ffffff"><tspan class="row" x="0" dy="1em" xml:space="preserve">POST /api/v1/hunting/run-rule</tspan><tspan class="row" x="0" dy="1em" xml:space="preserve">Execute Sigma rule against index</tspan></text></g></g><g transform="translate(443.6796875, 57)" id="flowchart-A2-26" class="node default api flowchart-label"><rect height="48" width="196.421875" y="-24" x="-98.2109375" ry="0" rx="0" class="basic label-container"></rect><g transform="translate(0, -16.5)" class="label"><rect></rect><text fill="#ffffff"><tspan class="row" x="0" dy="1em" xml:space="preserve">GET /api/v1/hunting/rules</tspan><tspan class="row" x="0" dy="1em" xml:space="preserve">List available Sigma rules</tspan></text></g></g><g transform="translate(721.6796875, 57)" id="flowchart-A3-27" class="node default api flowchart-label"><rect height="48" width="259.578125" y="-24" x="-129.7890625" ry="0" rx="0" class="basic label-container"></rect><g transform="translate(0, -16.5)" class="label"><rect></rect><text fill="#ffffff"><tspan class="row" x="0" dy="1em" xml:space="preserve">GET /api/v1/hunting/results</tspan><tspan class="row" x="0" dy="1em" xml:space="preserve">Return last hunting session results</tspan></text></g></g><g transform="translate(1063.0390625, 57)" id="flowchart-A4-28" class="node default api flowchart-label"><rect height="48" width="323.140625" y="-24" x="-161.5703125" ry="0" rx="0" class="basic label-container"></rect><g transform="translate(0, -16.5)" class="label"><rect></rect><text fill="#ffffff"><tspan class="row" x="0" dy="1em" xml:space="preserve">POST /api/v1/hunting/escalate</tspan><tspan class="row" x="0" dy="1em" xml:space="preserve">Send confirmed finding to TheHive / Shuffle</tspan></text></g></g></g></g><g transform="translate(145.5390625, 95)" id="flowchart-C1-20" class="node default hunting flowchart-label"><rect height="80" width="143.6171875" y="-40" x="-71.80859375" ry="0" rx="0" class="basic label-container"></rect><g transform="translate(0, -32.5)" class="label"><rect></rect><text fill="#ffffff"><tspan class="row" x="0" dy="1em" xml:space="preserve">Lateral Movement</tspan><tspan class="row" x="0" dy="1em" xml:space="preserve">pass-the-hash</tspan><tspan class="row" x="0" dy="1em" xml:space="preserve">psexec</tspan><tspan class="row" x="0" dy="1em" xml:space="preserve">remote execution</tspan></text></g></g><g transform="translate(145.5390625, 225)" id="flowchart-C2-21" class="node default hunting flowchart-label"><rect height="80" width="153.8203125" y="-40" x="-76.91015625" ry="0" rx="0" class="basic label-container"></rect><g transform="translate(0, -32.5)" class="label"><rect></rect><text fill="#ffffff"><tspan class="row" x="0" dy="1em" xml:space="preserve">Persistence</tspan><tspan class="row" x="0" dy="1em" xml:space="preserve">cron</tspan><tspan class="row" x="0" dy="1em" xml:space="preserve">startup items</tspan><tspan class="row" x="0" dy="1em" xml:space="preserve">registry persistence</tspan></text></g></g><g transform="translate(145.5390625, 355)" id="flowchart-C3-22" class="node default hunting flowchart-label"><rect height="80" width="191.078125" y="-40" x="-95.5390625" ry="0" rx="0" class="basic label-container"></rect><g transform="translate(0, -32.5)" class="label"><rect></rect><text fill="#ffffff"><tspan class="row" x="0" dy="1em" xml:space="preserve">Privilege Escalation</tspan><tspan class="row" x="0" dy="1em" xml:space="preserve">sudo abuse</tspan><tspan class="row" x="0" dy="1em" xml:space="preserve">UAC bypass</tspan><tspan class="row" x="0" dy="1em" xml:space="preserve">suspicious admin activity</tspan></text></g></g><g transform="translate(145.5390625, 485)" id="flowchart-C4-23" class="node default hunting flowchart-label"><rect height="80" width="175.96875" y="-40" x="-87.984375" ry="0" rx="0" class="basic label-container"></rect><g transform="translate(0, -32.5)" class="label"><rect></rect><text fill="#ffffff"><tspan class="row" x="0" dy="1em" xml:space="preserve">Defense Evasion</tspan><tspan class="row" x="0" dy="1em" xml:space="preserve">log clearing</tspan><tspan class="row" x="0" dy="1em" xml:space="preserve">AV disable</tspan><tspan class="row" x="0" dy="1em" xml:space="preserve">security tool tampering</tspan></text></g></g><g transform="translate(145.5390625, 615)" id="flowchart-C5-24" class="node default hunting flowchart-label"><rect height="80" width="185.5" y="-40" x="-92.75" ry="0" rx="0" class="basic label-container"></rect><g transform="translate(0, -32.5)" class="label"><rect></rect><text fill="#ffffff"><tspan class="row" x="0" dy="1em" xml:space="preserve">Exfiltration</tspan><tspan class="row" x="0" dy="1em" xml:space="preserve">large DNS</tspan><tspan class="row" x="0" dy="1em" xml:space="preserve">unusual outbound traffic</tspan><tspan class="row" x="0" dy="1em" xml:space="preserve">data staging</tspan></text></g></g><g transform="translate(481.8203125, 355)" id="flowchart-SIGMA-0" class="node default tool flowchart-label"><rect height="80" width="281.484375" y="-40" x="-140.7421875" ry="0" rx="0" class="basic label-container"></rect><g transform="translate(0, -32.5)" class="label"><rect></rect><text fill="#ffffff"><tspan class="row" x="0" dy="1em" xml:space="preserve">Sigma Rules</tspan><tspan class="row" x="0" dy="1em" xml:space="preserve"></tspan><tspan class="row" x="0" dy="1em" xml:space="preserve">Vendor-agnostic detection rule format</tspan><tspan class="row" x="0" dy="1em" xml:space="preserve">Stored in:</tspan><tspan class="row" x="0" dy="1em" xml:space="preserve">CySA-config/sigma/rules/*.yml</tspan></text></g></g><g transform="translate(829.5546875, 355)" id="flowchart-SIGMACLI-1" class="node default tool flowchart-label"><rect height="64" width="179.546875" y="-32" x="-89.7734375" ry="0" rx="0" class="basic label-container"></rect><g transform="translate(0, -24.5)" class="label"><rect></rect><text fill="#ffffff"><tspan class="row" x="0" dy="1em" xml:space="preserve">sigma-cli</tspan><tspan class="row" x="0" dy="1em" xml:space="preserve"></tspan><tspan class="row" x="0" dy="1em" xml:space="preserve">Converts Sigma rules</tspan><tspan class="row" x="0" dy="1em" xml:space="preserve">to OpenSearch queries</tspan></text></g></g><g transform="translate(2220.0625, 345)" id="flowchart-JUPYTER-2" class="node default tool flowchart-label"><rect height="96" width="180.53125" y="-48" x="-90.265625" ry="0" rx="0" class="basic label-container"></rect><g transform="translate(0, -40.5)" class="label"><rect></rect><text fill="#ffffff"><tspan class="row" x="0" dy="1em" xml:space="preserve">Jupyter Workbench</tspan><tspan class="row" x="0" dy="1em" xml:space="preserve">Docker container :8888</tspan><tspan class="row" x="0" dy="1em" xml:space="preserve"></tspan><tspan class="row" x="0" dy="1em" xml:space="preserve">Interactive notebooks</tspan><tspan class="row" x="0" dy="1em" xml:space="preserve">Hunt visualization</tspan><tspan class="row" x="0" dy="1em" xml:space="preserve">Analyst exploration</tspan></text></g></g><g transform="translate(829.5546875, 568)" id="flowchart-HAYABUSA-3" class="node default tool flowchart-label"><rect height="64" width="263.984375" y="-32" x="-131.9921875" ry="0" rx="0" class="basic label-container"></rect><g transform="translate(0, -24.5)" class="label"><rect></rect><text fill="#ffffff"><tspan class="row" x="0" dy="1em" xml:space="preserve">Hayabusa</tspan><tspan class="row" x="0" dy="1em" xml:space="preserve"></tspan><tspan class="row" x="0" dy="1em" xml:space="preserve">Fast Windows event log hunting</tspan><tspan class="row" x="0" dy="1em" xml:space="preserve">Useful for Windows event timelines</tspan></text></g></g></g></g></g></svg>